<svg class="document-preview" viewBox="0 0 595.28 841.89" xmlns="http://www.w3.org/2000/svg" style="direction: ltr;"><rect width="100%" height="100%" fill="white"></rect><text x="25" y="40.9375" fill="#303745" style="font: 15px Poppins; white-space: pre; letter-spacing: 0px;">Education</text><text x="25" y="66.25" fill="black" style="font: bold 10px Poppins; white-space: pre; letter-spacing: 0px;">B.Tech</text><text x="274.39" y="66.25" fill="black" style="font: 10px Poppins; white-space: pre; letter-spacing: 0px;">Aug </text><text x="296.96" y="66.25" fill="black" style="font: 10px Poppins; white-space: pre; letter-spacing: 0px;">2016 </text><text x="321.21" y="66.25" fill="black" style="font: 10px Poppins; white-space: pre; letter-spacing: 0px;">-</text><text x="326.71999999999997" y="66.25" fill="black" style="font: 10px Poppins; white-space: pre; letter-spacing: 0px;"> </text><text x="329.39" y="66.25" fill="black" style="font: 10px Poppins; white-space: pre; letter-spacing: 0px;">Jul </text><text x="346.21999999999997" y="66.25" fill="black" style="font: 10px Poppins; white-space: pre; letter-spacing: 0px;">2020</text><text x="25" y="80" fill="#888888" style="font: 10px Poppins; white-space: pre; letter-spacing: 0px;">Durgapur </text><text x="75.28" y="80" fill="#888888" style="font: 10px Poppins; white-space: pre; letter-spacing: 0px;">Institute </text><text x="118.01" y="80" fill="#888888" style="font: 10px Poppins; white-space: pre; letter-spacing: 0px;">of </text><text x="130.37" y="80" fill="#888888" style="font: 10px Poppins; white-space: pre; letter-spacing: 0px;">Advanced </text><text x="184.34" y="80" fill="#888888" style="font: 10px Poppins; white-space: pre; letter-spacing: 0px;">Technology </text><text x="245.14" y="80" fill="#888888" style="font: 10px Poppins; white-space: pre; letter-spacing: 0px;">and </text><text x="267.73" y="80" fill="#888888" style="font: 10px Poppins; white-space: pre; letter-spacing: 0px;">Management,</text><text x="25" y="93.75" fill="#888888" style="font: 10px Poppins; white-space: pre; letter-spacing: 0px;">Durgapur</text><text x="25" y="117.5" fill="black" style="font: bold 10px Poppins; white-space: pre; letter-spacing: 0px;">12th</text><text x="348.77" y="117.5" fill="black" style="font: 10px Poppins; white-space: pre; letter-spacing: 0px;">2015</text><text x="25" y="131.25" fill="#888888" style="font: 10px Poppins; white-space: pre; letter-spacing: 0px;">Sunrise</text><text x="61.28" y="131.25" fill="#888888" style="font: 10px Poppins; white-space: pre; letter-spacing: 0px;">(Eng. </text><text x="88.88" y="131.25" fill="#888888" style="font: 10px Poppins; white-space: pre; letter-spacing: 0px;">Med.) </text><text x="119.76" y="131.25" fill="#888888" style="font: 10px Poppins; white-space: pre; letter-spacing: 0px;">School, </text><text x="158.01" y="131.25" fill="#888888" style="font: 10px Poppins; white-space: pre; letter-spacing: 0px;">Kolkata</text><text x="25" y="145" fill="black" style="font: 10px Poppins; white-space: pre; letter-spacing: 0px;">Board-</text><text x="60.29" y="145" fill="black" style="font: 10px Poppins; white-space: pre; letter-spacing: 0px;">ISC</text><text x="25" y="168.75" fill="black" style="font: bold 10px Poppins; white-space: pre; letter-spacing: 0px;">10th</text><text x="349.15999999999997" y="168.75" fill="black" style="font: 10px Poppins; white-space: pre; letter-spacing: 0px;">2013</text><text x="25" y="182.5" fill="#888888" style="font: 10px Poppins; white-space: pre; letter-spacing: 0px;">Sunrise</text><text x="61.28" y="182.5" fill="#888888" style="font: 10px Poppins; white-space: pre; letter-spacing: 0px;">(Eng. </text><text x="88.88" y="182.5" fill="#888888" style="font: 10px Poppins; white-space: pre; letter-spacing: 0px;">Med.) </text><text x="119.76" y="182.5" fill="#888888" style="font: 10px Poppins; white-space: pre; letter-spacing: 0px;">School, </text><text x="158.01" y="182.5" fill="#888888" style="font: 10px Poppins; white-space: pre; letter-spacing: 0px;">Kolkata</text><text x="25" y="196.25" fill="black" style="font: 10px Poppins; white-space: pre; letter-spacing: 0px;">Board-</text><text x="60.29" y="196.25" fill="black" style="font: 10px Poppins; white-space: pre; letter-spacing: 0px;">ICSE</text><path d="M 395.28,25 L 395.78,25 C 395.78,25,395.78,25,395.78,25 L 395.78,816.89 C 395.78,816.89,395.78,816.89,395.78,816.89 L 395.28,816.89 C 395.28,816.89,395.28,816.89,395.28,816.89 L 395.28,25 C 395.28,25,395.28,25,395.28,25 Z" fill="#e2e2e2"></path><path d="M 420.28,28.4375 L 427.78,28.4375 C 427.78,28.4375,427.78,28.4375,427.78,28.4375 L 427.78,35.9375 C 427.78,35.9375,427.78,35.9375,427.78,35.9375 L 420.28,35.9375 C 420.28,35.9375,420.28,35.9375,420.28,35.9375 L 420.28,28.4375 C 420.28,28.4375,420.28,28.4375,420.28,28.4375 Z" fill="#303745"></path><text x="432.78" y="35.625" fill="black" style="font: 10px Poppins; white-space: pre; letter-spacing: 0px;">Cooking</text><path d="M 420.28,52.1875 L 427.78,52.1875 C 427.78,52.1875,427.78,52.1875,427.78,52.1875 L 427.78,59.6875 C 427.78,59.6875,427.78,59.6875,427.78,59.6875 L 420.28,59.6875 C 420.28,59.6875,420.28,59.6875,420.28,59.6875 L 420.28,52.1875 C 420.28,52.1875,420.28,52.1875,420.28,52.1875 Z" fill="#303745"></path><text x="432.78" y="59.375" fill="black" style="font: 10px Poppins; white-space: pre; letter-spacing: 0px;">Playing </text><text x="471.71" y="59.375" fill="black" style="font: 10px Poppins; white-space: pre; letter-spacing: 0px;">Computer </text><text x="525.53" y="59.375" fill="black" style="font: 10px Poppins; white-space: pre; letter-spacing: 0px;">Games</text><path d="M 420.28,82.5 L 570.28,82.5 C 570.28,82.5,570.28,82.5,570.28,82.5 L 570.28,83 C 570.28,83,570.28,83,570.28,83 L 420.28,83 C 420.28,83,420.28,83,420.28,83 L 420.28,82.5 C 420.28,82.5,420.28,82.5,420.28,82.5 Z" fill="#e2e2e2"></path><text x="420.28" y="113.9375" fill="#303745" style="font: 15px Poppins; white-space: pre; letter-spacing: 0px;">Qualities</text><path d="M 420.28,132.0625 L 427.78,132.0625 C 427.78,132.0625,427.78,132.0625,427.78,132.0625 L 427.78,139.5625 C 427.78,139.5625,427.78,139.5625,427.78,139.5625 L 420.28,139.5625 C 420.28,139.5625,420.28,139.5625,420.28,139.5625 L 420.28,132.0625 C 420.28,132.0625,420.28,132.0625,420.28,132.0625 Z" fill="#303745"></path><text x="432.78" y="139.25" fill="black" style="font: 10px Poppins; white-space: pre; letter-spacing: 0px;">Hardworking</text><path d="M 420.28,155.8125 L 427.78,155.8125 C 427.78,155.8125,427.78,155.8125,427.78,155.8125 L 427.78,163.3125 C 427.78,163.3125,427.78,163.3125,427.78,163.3125 L 420.28,163.3125 C 420.28,163.3125,420.28,163.3125,420.28,163.3125 L 420.28,155.8125 C 420.28,155.8125,420.28,155.8125,420.28,155.8125 Z" fill="#303745"></path><text x="432.78" y="163" fill="black" style="font: 10px Poppins; white-space: pre; letter-spacing: 0px;">Dedicated</text><path d="M 420.28,179.5625 L 427.78,179.5625 C 427.78,179.5625,427.78,179.5625,427.78,179.5625 L 427.78,187.0625 C 427.78,187.0625,427.78,187.0625,427.78,187.0625 L 420.28,187.0625 C 420.28,187.0625,420.28,187.0625,420.28,187.0625 L 420.28,179.5625 C 420.28,179.5625,420.28,179.5625,420.28,179.5625 Z" fill="#303745"></path><text x="432.78" y="186.75" fill="black" style="font: 10px Poppins; white-space: pre; letter-spacing: 0px;">Adaptive </text><text x="480.38" y="186.75" fill="black" style="font: 10px Poppins; white-space: pre; letter-spacing: 0px;">to </text><text x="493.09" y="186.75" fill="black" style="font: 10px Poppins; white-space: pre; letter-spacing: 0px;">any</text><text x="432.78" y="200.5" fill="black" style="font: 10px Poppins; white-space: pre; letter-spacing: 0px;">environment</text><path d="M 420.28,217.0625 L 427.78,217.0625 C 427.78,217.0625,427.78,217.0625,427.78,217.0625 L 427.78,224.5625 C 427.78,224.5625,427.78,224.5625,427.78,224.5625 L 420.28,224.5625 C 420.28,224.5625,420.28,224.5625,420.28,224.5625 L 420.28,217.0625 C 420.28,217.0625,420.28,217.0625,420.28,217.0625 Z" fill="#303745"></path><text x="432.78" y="224.25" fill="black" style="font: 10px Poppins; white-space: pre; letter-spacing: 0px;">Self </text><text x="453.27" y="224.25" fill="black" style="font: 10px Poppins; white-space: pre; letter-spacing: 0px;">Motivated</text><path d="M 420.28,247.375 L 570.28,247.375 C 570.28,247.375,570.28,247.375,570.28,247.375 L 570.28,247.875 C 570.28,247.875,570.28,247.875,570.28,247.875 L 420.28,247.875 C 420.28,247.875,420.28,247.875,420.28,247.875 L 420.28,247.375 C 420.28,247.375,420.28,247.375,420.28,247.375 Z" fill="#e2e2e2"></path><text x="420.28" y="278.8125" fill="#303745" style="font: 15px Poppins; white-space: pre; letter-spacing: 0px;">Code </text><text x="464.905" y="278.8125" fill="#303745" style="font: 15px Poppins; white-space: pre; letter-spacing: 0px;">Editors</text><path d="M 420.28,296.9375 L 427.78,296.9375 C 427.78,296.9375,427.78,296.9375,427.78,296.9375 L 427.78,304.4375 C 427.78,304.4375,427.78,304.4375,427.78,304.4375 L 420.28,304.4375 C 420.28,304.4375,420.28,304.4375,420.28,304.4375 L 420.28,296.9375 C 420.28,296.9375,420.28,296.9375,420.28,296.9375 Z" fill="#303745"></path><text x="432.78" y="304.125" fill="black" style="font: 10px Poppins; white-space: pre; letter-spacing: 0px;">Visual </text><text x="465.51" y="304.125" fill="black" style="font: 10px Poppins; white-space: pre; letter-spacing: 0px;">Studio </text><text x="499.71" y="304.125" fill="black" style="font: 10px Poppins; white-space: pre; letter-spacing: 0px;">Code</text><path d="M 420.28,320.6875 L 427.78,320.6875 C 427.78,320.6875,427.78,320.6875,427.78,320.6875 L 427.78,328.1875 C 427.78,328.1875,427.78,328.1875,427.78,328.1875 L 420.28,328.1875 C 420.28,328.1875,420.28,328.1875,420.28,328.1875 L 420.28,320.6875 C 420.28,320.6875,420.28,320.6875,420.28,320.6875 Z" fill="#303745"></path><text x="432.78" y="327.875" fill="black" style="font: 10px Poppins; white-space: pre; letter-spacing: 0px;">Intellij </text><text x="464.01" y="327.875" fill="black" style="font: 10px Poppins; white-space: pre; letter-spacing: 0px;">IDE</text><path d="M 420.28,344.4375 L 427.78,344.4375 C 427.78,344.4375,427.78,344.4375,427.78,344.4375 L 427.78,351.9375 C 427.78,351.9375,427.78,351.9375,427.78,351.9375 L 420.28,351.9375 C 420.28,351.9375,420.28,351.9375,420.28,351.9375 L 420.28,344.4375 C 420.28,344.4375,420.28,344.4375,420.28,344.4375 Z" fill="#303745"></path><text x="432.78" y="351.625" fill="black" style="font: 10px Poppins; white-space: pre; letter-spacing: 0px;">Sublime </text><text x="475.9" y="351.625" fill="black" style="font: 10px Poppins; white-space: pre; letter-spacing: 0px;">Text</text><path d="M 420.28,368.1875 L 427.78,368.1875 C 427.78,368.1875,427.78,368.1875,427.78,368.1875 L 427.78,375.6875 C 427.78,375.6875,427.78,375.6875,427.78,375.6875 L 420.28,375.6875 C 420.28,375.6875,420.28,375.6875,420.28,375.6875 L 420.28,368.1875 C 420.28,368.1875,420.28,368.1875,420.28,368.1875 Z" fill="#303745"></path><text x="432.78" y="375.375" fill="black" style="font: 10px Poppins; white-space: pre; letter-spacing: 0px;">Notepad++</text></svg>